<svg width="800" height="800" viewBox="0 0 800 800" fill="none" xmlns="http://www.w3.org/2000/svg">
<path d="M399.988 0C246.91 0 122.375 124.554 122.375 277.636C122.375 424.99 374.258 769.262 384.983 783.841L394.992 797.463C396.163 799.064 398.027 800 399.988 800C401.979 800 403.831 799.064 405.014 797.463L415.017 783.841C425.748 769.262 677.626 424.99 677.626 277.636C677.626 124.554 553.07 0 399.988 0ZM399.988 178.187C454.836 178.187 499.436 222.789 499.436 277.636C499.436 332.454 454.834 377.084 399.988 377.084C345.172 377.084 300.539 332.454 300.539 277.636C300.539 222.789 345.17 178.187 399.988 178.187Z" fill="#FF2222"/>
</svg>
