<svg id="Layer_1" data-name="Layer 1" xmlns="http://www.w3.org/2000/svg" viewBox="0 0 392.03 266.36"><defs><style>.cls-1{fill:#181c21;}</style></defs><path class="cls-1" d="M396,272.84s-6-2.33-16.4-6.7c-5.14-2.41-11.65-4.3-18.9-7s-15.64-5.06-24.72-7.81l-6.94-2.07-7.32-1.7-15.31-3.71c-5.26-1.19-10.75-2-16.3-3s-11.22-2.2-17.06-2.77l-17.69-2.32c-6-.64-12.08-.93-18.2-1.48L228,233.5c-3.09-.15-6.19-.15-9.29-.25l-18.67-.5-18.74.5c-3.13.11-6.29.12-9.39.27l-9.14.74c-6.09.54-12.12.85-18.1,1.47L127,238.06c-5.85.56-11.49,1.82-17,2.78s-11,1.84-16.31,3l-15.31,3.7L71,249.28,64,251.35c-9.08,2.75-17.51,5-24.74,7.81s-13.81,4.61-18.91,7C10,270.5,4,272.84,4,272.84s5.5-3.55,15.33-9.51c4.85-3.17,11.08-6.12,18.17-9.71L43,250.87c1-.47,1.91-1,2.88-1.45l3-1.27,12.92-5.29,6.91-2.8L76,237.59l15.39-5c5.31-1.59,10.84-2.81,16.47-4.29s11.39-2.89,17.32-3.82l18.06-3.12c6.13-.9,12.42-1.41,18.73-2.08l9.5-.95c3.15-.25,6.28-.27,9.42-.4l19.09-.64,19.16.65c3.18.12,6.36.16,9.52.41l9.44,1c6.27.67,12.5,1.19,18.62,2.07l18.06,3.14c5.93.91,11.69,2.38,17.32,3.82s11.16,2.69,16.47,4.29l15.39,5,7.29,2.46,6.91,2.8,12.91,5.29c1,.43,2,.85,3,1.28l2.88,1.44,5.53,2.76c7.11,3.59,13.36,6.56,18.17,9.7C390.48,269.29,396,272.84,396,272.84Z" transform="translate(-3.99 -6.48)"/><path class="cls-1" d="M285.2,229.06v-89.9L209.83,71.87h-.69V229.06Z" transform="translate(-3.99 -6.48)"/><path class="cls-1" d="M209.83,6.48h-.69v42.7l76.06,67.9V73.77Z" transform="translate(-3.99 -6.48)"/><path class="cls-1" d="M190.05,229.06V116h-.69L114,183.31v45.75Z" transform="translate(-3.99 -6.48)"/><path class="cls-1" d="M114,117.92v43.31l76.06-67.9V50.64h-.69Z" transform="translate(-3.99 -6.48)"/></svg>